<?xml version="1.0" encoding="UTF-8" standalone="no"?>
<!-- Created with Inkscape (http://www.inkscape.org/) -->

<svg
   version="1.1"
   id="svg1"
   width="685.24786"
   height="661.41913"
   viewBox="0 0 685.24786 661.41913"
   xmlns="http://www.w3.org/2000/svg"
   xmlns:svg="http://www.w3.org/2000/svg">
  <defs
     id="defs1" />
  <g
     id="g1"
     transform="translate(-124.37181,-221.0525)"
     style="fill:#87a987;fill-opacity:1">
    <path
       style="fill:#87a987;fill-opacity:1"
       d="m 214.90118,654.6321 c -2.55434,-3.07984 -3.16322,-6.48294 -1.89682,-10.60162 1.87333,-6.0927 2.64511,-6.43552 28.44245,-12.63391 14.76214,-3.54693 14.29709,-3.3074 46.12216,-23.75647 6.2425,-4.01109 9.98431,-5.61133 15.91188,-6.80495 6.49225,-1.30731 7.93565,-1.97469 8.89364,-4.11205 0.62896,-1.4033 2.87007,-5.8785 4.98022,-9.94491 2.11016,-4.06639 3.64275,-7.53102 3.40578,-7.69915 -0.23698,-0.16814 -6.41804,-0.50445 -13.73569,-0.74737 -49.38372,-1.63934 -91.51182,-11.0001 -130.38885,-28.97208 -8.7785,-4.0581 -14.04375,-7.2251 -25.35175,-15.24882 -12.84202,-9.11221 -14.66928,-10.69285 -18.23531,-15.77416 -7.84829,-11.18317 -10.1388,-21.00367 -7.81238,-33.49528 0.95705,-5.13889 2.15071,-7.77139 6.65433,-14.67561 4.99369,-7.65554 6.19292,-8.92782 13.31276,-14.12386 20.53188,-14.98411 50.34407,-25.61376 92.9113,-33.12788 44.2902,-7.81827 82.40347,-9.99505 147.3765,-8.4172 12.39785,0.30107 23.6124,0.44355 24.92119,0.31659 2.29503,-0.22261 2.34234,-0.28929 1.3305,-1.87526 -0.57702,-0.90444 -5.95802,-9.5014 -11.95778,-19.10434 l -10.90863,-17.4599 0.51658,-16.28151 0.51658,-16.28151 -3.86544,-5.78491 c -2.12598,-3.18171 -9.79252,-15.31747 -17.03673,-26.96836 -7.24422,-11.65088 -14.66735,-23.31043 -16.49585,-25.91011 -4.60103,-6.54151 -5.54627,-9.42601 -4.54595,-13.87234 1.69914,-7.55242 10.66389,-11.07871 16.91748,-6.65448 1.24168,0.87852 7.02445,9.44796 12.85053,19.0433 5.82608,9.59534 12.42235,20.31121 14.65839,23.81305 10.11488,15.84081 16.69811,26.67878 17.59556,28.96759 0.53628,1.36767 0.8596,9.00019 0.71853,16.96115 -0.14109,7.96097 -0.0165,15.4272 0.27693,16.59162 0.48174,1.91186 24.13873,40.88459 26.74784,44.0646 0.6077,0.74068 5.76894,1.46473 11.70892,1.6426 5.84222,0.17494 15.72147,0.71326 21.95389,1.19626 l 11.33168,0.87818 2.8141,-3.96631 c 1.78877,-2.52118 2.46071,-4.21703 1.84421,-4.65444 -1.17231,-0.83175 -20.75993,-32.90642 -21.05286,-34.47399 -0.37173,-1.98929 3.60723,-11.29215 17.89855,-41.84691 16.04899,-34.31266 14.75088,-28.35726 11.82709,-54.25945 -3.65685,-32.3964 -4.95224,-47.49035 -4.29517,-50.04719 1.70364,-6.62924 10.75108,-9.72367 16.50135,-5.64386 4.52926,3.21352 4.91134,4.17101 5.35943,13.43134 0.22462,4.64189 1.89964,21.73717 3.72227,37.98952 l 3.31388,29.54971 -3.52327,7.69863 c -1.9378,4.23424 -9.13002,19.35074 -15.98273,33.59221 -6.8527,14.24148 -12.39084,26.06037 -12.30698,26.2642 1.64491,3.99791 15.10976,25.99639 15.79156,25.79978 0.52281,-0.15075 3.71336,-1.90032 7.09012,-3.88792 9.67961,-5.69753 22.95124,-10.63599 33.69712,-12.53894 l 9.88585,-1.75064 -2.94635,-5.40984 c -4.14267,-7.60644 -7.35514,-27.92378 -3.4993,-22.13139 2.24644,3.37468 9.27688,8.73037 15.24387,11.61256 13.69017,6.61268 29.07423,6.336 41.56019,-0.74744 5.43334,-3.08239 7.32432,-4.81097 12.54912,-11.4714 10.15075,-12.93989 13.37128,-23.43931 11.64315,-37.95833 -0.51621,-4.33688 -0.84018,-8.02388 -0.71994,-8.19335 0.12023,-0.16946 3.00792,0.035 6.41707,0.45432 3.40916,0.41934 6.53818,0.28636 6.95337,-0.29551 1.10444,-1.54801 1.80266,-7.54955 0.94867,-8.15546 -0.40263,-0.28567 -1.18712,-2.2707 -1.74329,-4.41118 -2.56992,-9.89042 10.52204,-13.30597 14.50927,-3.78531 1.77075,4.22818 2.00047,13.11636 0.43005,16.63948 -1.11448,2.50025 -0.99967,2.667 4.78621,6.95158 3.26044,2.41444 6.30316,4.71119 6.7616,5.10389 0.45845,0.39271 2.22139,-0.28223 3.91764,-1.49986 6.19587,-4.44763 17.09724,-6.15084 21.11646,-3.2992 0.89583,0.63559 2.05612,2.60238 2.57841,4.37063 0.73969,2.50429 0.44409,3.92755 -1.33722,6.4382 -2.0863,2.94051 -2.73961,3.18975 -7.44952,2.84199 -4.79671,-0.35417 -8.65691,0.84034 -10.31416,3.19164 -0.38121,0.54076 0.40125,2.74312 1.73871,4.89406 4.88968,7.86375 4.78056,8.16588 -3.4903,9.66398 -30.62067,5.54633 -48.91207,39.79693 -35.61019,66.68 4.70961,9.51811 14.9414,18.80839 25.69699,23.3324 3.69467,1.55405 -15.80482,4.28836 -22.46721,3.15045 -3.007,-0.51358 -5.70319,-0.91588 -5.99154,-0.89399 -0.28834,0.0219 0.11285,2.73724 0.89152,6.03414 2.04005,8.63746 2.22492,24.21043 0.42595,35.88081 -0.85655,5.55663 -1.92148,10.61617 -2.36652,11.24342 -0.44503,0.62725 -0.61375,1.2791 -0.37493,1.44854 0.23883,0.16945 6.95725,1.54942 14.92981,3.06661 12.43562,2.3665 14.77128,2.499 16.43561,0.93244 1.06701,-1.00435 13.17916,-12.88755 26.91588,-26.40713 l 24.97587,-24.58104 8.80497,-1.72271 c 13.61286,-2.66337 50.51762,-11.53646 58.96476,-14.17704 5.61598,-1.75555 8.8398,-1.47429 12.44851,1.08609 4.62626,3.28234 5.84299,7.76729 3.83332,14.12997 -0.90856,2.87651 -5.81674,5.30331 -14.9649,7.39925 -23.49965,5.38403 -29.30476,6.73688 -44.22956,10.30749 l -16.1547,3.86484 -15.00548,14.48924 c -8.25302,7.96908 -21.03395,20.14368 -28.40207,27.05466 l -13.39659,12.56543 -3.798,-0.61877 c -2.08891,-0.34033 -9.55204,-1.84086 -16.58474,-3.33451 -23.28096,-4.94459 -21.67983,-4.87861 -24.38314,-1.0048 -2.36877,3.39447 -2.36847,3.39681 1.90239,13.30415 2.34938,5.45 6.3273,14.75549 8.83983,20.67886 2.51251,5.92338 4.9893,11.06854 5.50396,11.43368 0.51466,0.36516 8.61897,2.19591 18.00959,4.06835 9.39061,1.87244 20.38048,4.18585 24.42192,5.14091 l 7.34807,1.73645 15.71165,-5.72321 15.71164,-5.72321 13.85552,2.93749 c 7.62053,1.61563 19.33671,4.15528 26.03594,5.64369 6.69925,1.48839 18.57503,4.02149 26.39065,5.62911 7.81562,1.60761 15.27175,3.67608 16.5692,4.59662 3.06293,2.17315 4.63333,8.32655 3.26266,12.78438 -0.90149,2.93194 -1.66441,3.81675 -4.72885,5.4843 -3.07534,1.67349 -4.82019,1.71648 -11.01874,0.27148 -19.37825,-4.51741 -67.98572,-15.01506 -69.31928,-14.97073 -0.82735,0.0275 -8.00011,2.52029 -15.93947,5.53954 l -14.43518,5.48954 -13.36095,-3.12583 c -17.51897,-4.09861 -30.94548,-6.78155 -31.2728,-6.24906 -0.14428,0.23482 4.04392,11.40306 9.30722,24.81839 11.02877,28.11065 19.5132,52.74516 26.72918,77.60812 21.14144,72.84369 25.29942,138.53395 10.8276,171.061 -9.65886,21.70937 -30.19439,30.97469 -53.13395,23.97322 -12.63581,-3.85664 -32.44139,-19.07647 -49.27332,-37.86469 -26.4869,-29.56534 -49.63011,-68.58131 -64.70397,-109.08114 -2.17906,-5.85462 -4.11698,-10.60259 -4.30649,-10.55104 -0.18951,0.0515 -3.73312,3.91936 -7.87469,8.59516 l -7.53015,8.50145 0.74361,5.79424 c 1.02112,7.95653 0.84535,10.22562 -1.58658,20.48221 -1.16342,4.9067 -3.56504,15.02856 -5.33693,22.49303 -3.16539,13.33483 -3.19003,13.90019 -1.41159,32.38446 0.99553,10.34699 1.38578,19.90278 0.86723,21.23511 -2.31153,5.93905 -9.44437,8.43124 -15.31038,5.34939 -5.13565,-2.69814 -6.35816,-5.46472 -6.43107,-14.55378 -0.0329,-4.10507 -0.54752,-13.05145 -1.14353,-19.88083 -0.8503,-9.74327 -0.65402,-13.82841 0.91152,-18.97133 2.19272,-7.20325 6.76546,-27.69517 8.13694,-36.46414 0.47965,-3.06681 0.24632,-9.42988 -0.5185,-14.14016 l -1.3906,-8.56413 9.11275,-9.8665 c 5.01201,-5.42657 12.00988,-13.08811 15.55082,-17.02565 l 6.43807,-7.15916 -1.45477,-6.46801 c -0.80012,-3.5574 -2.34077,-11.07721 -3.42365,-16.71067 l -1.96888,-10.24268 -9.02199,9.82288 c -20.20922,22.0032 -48.47507,40.12447 -77.79456,49.87416 -4.85376,1.61403 -15.13088,3.97818 -22.83805,5.25364 -16.66391,2.75774 -24.28456,2.0407 -32.5425,-3.06195 -8.57461,-5.29834 -11.89459,-12.38786 -15.25389,-32.57338 -6.36773,-38.26274 1.77827,-82.73553 21.18273,-115.64632 2.12645,-3.60656 3.73696,-6.84206 3.57891,-7.19001 -0.15805,-0.34794 -7.88236,0.47844 -17.16513,1.83641 l -16.87777,2.46902 -4.21824,7.86217 c -2.32003,4.32419 -7.14563,13.50979 -10.72353,20.41246 l -6.50529,12.55029 -7.52133,1.17486 c -4.13672,0.64617 -8.90248,1.67893 -10.59057,2.29501 -3.89609,1.42192 -27.84824,15.78287 -35.18674,21.09686 -4.47087,3.23746 -8.68428,4.87073 -21.48828,8.32957 -28.36018,7.66117 -28.82744,7.69889 -33.0037,2.66346 z m 175.17463,24.49129 c 7.20294,0.26688 12.29681,-5.89667 10.89702,-13.18532 -0.72669,-3.78384 -1.30543,-4.51282 -6.51985,-8.21245 -5.43216,-3.85411 -5.93892,-4.01058 -9.99195,-3.08502 -8.05442,1.8393 -11.76134,11.12255 -6.93713,17.37264 2.58491,3.34894 8.99192,6.97825 12.55191,7.11015 z M 177.40342,525.81183 c 4.95603,2.51961 11.91113,5.7428 15.45576,7.16262 l 6.44479,2.58151 9.39754,-13.24531 9.39754,-13.2453 -10.86909,-1.53017 c -5.978,-0.8416 -15.82218,-2.70983 -21.87597,-4.15162 -6.05379,-1.4418 -11.89872,-2.24695 -12.98875,-1.7892 -1.09002,0.45773 -5.4377,2.24263 -9.6615,3.96644 -4.2238,1.72381 -8.27329,3.4027 -8.99887,3.73086 -1.88963,0.85464 12.18891,10.66873 23.69855,16.52017 z m 468.15086,330.60783 c 0.23262,-1.68948 0.70102,-6.89649 1.0409,-11.57113 l 0.61795,-8.49937 -7.56634,-11.85151 c -4.16148,-6.51834 -9.14697,-15.29138 -11.07885,-19.49564 -1.93188,-4.20427 -3.7775,-7.59909 -4.10137,-7.54406 -0.32387,0.055 -4.49232,6.14792 -9.26321,13.53975 l -8.67435,13.43967 6.58108,7.32831 c 8.61357,9.59154 14.48766,14.94056 24.12181,21.96563 l 7.89944,5.76012 z M 157.54386,492.39738 c 0.25317,-0.32616 -1.92525,-2.28557 -4.84094,-4.35425 -2.91568,-2.06868 -5.54938,-3.41149 -5.85266,-2.98403 -0.72031,1.01523 -1.76699,6.02938 -1.96998,9.43723 -0.1598,2.68284 -0.13585,2.68521 6.02142,0.59382 3.40004,-1.15487 6.389,-2.36661 6.64216,-2.69277 z m 508.88977,367.10216 c 2.34676,-1.4735 4.20673,-3.03277 4.13328,-3.46506 -0.0735,-0.43229 -2.46174,-2.27189 -5.30728,-4.088 l -5.17372,-3.30202 -0.15183,6.40402 c -0.0835,3.52222 0.38469,6.5674 1.04044,6.76708 0.65575,0.19968 3.11234,-0.84253 5.45911,-2.31602 z M 229.94214,545.94609 c 14.11908,3.80218 33.88983,7.53527 34.60075,6.53327 0.63989,-0.90189 25.83639,-17.28908 42.22982,-27.46527 11.47309,-7.12188 22.56183,-15.69233 29.24107,-22.6003 l 2.70899,-2.80178 -3.42035,-1.57992 c -1.88119,-0.86896 -4.15739,-1.2339 -5.05822,-0.81099 -0.90083,0.42292 -9.33341,2.52986 -18.73908,4.68209 -24.41366,5.58639 -41.89069,7.64649 -65.18371,7.68352 -11.69426,0.0186 -10.09977,-1.13122 -24.81679,17.89583 l -9.70784,12.55088 3.15341,1.3623 c 1.73438,0.74927 8.48076,2.79693 14.99195,4.55037 z m 370.67253,263.2623 c 1.40974,-2.54023 5.98005,-9.94031 10.15623,-16.44462 l 7.59307,-11.82603 -3.656,-10.51625 c -7.87032,-22.63851 -13.24027,-48.92329 -15.11643,-73.99188 -0.70009,-9.35428 -1.35998,-12.28557 -3.15105,-13.99749 l -2.26553,-2.16538 -2.25356,4.27438 c -4.213,7.99094 -7.81752,18.74901 -11.49119,34.29674 -9.1258,38.62222 -11.40718,49.35418 -10.85681,51.07216 1.72021,5.36956 24.15496,40.35479 27.80861,43.36534 0.36821,0.30342 1.82292,-1.52673 3.23266,-4.06697 z M 179.64592,486.35983 c 13.35478,5.15735 52.24134,9.60615 56.89407,6.50894 1.15409,-0.76825 3.28455,-16.45759 3.11,-22.90288 l -0.0698,-2.57769 -8.85669,-2.12249 c -9.04426,-2.16744 -21.31211,-6.47175 -28.12798,-9.86903 -3.62394,-1.8063 -4.33744,-1.69147 -15.06367,2.42411 -12.11767,4.64949 -29.21648,12.89422 -30.56178,14.73635 -1.15539,1.58214 12.40509,9.83633 22.67586,13.80269 z m 499.36973,356.40376 c 1.35952,-1.89351 4.09509,-23.09604 4.30844,-33.3929 0.11676,-5.63415 -0.38687,-11.32167 -1.11914,-12.63893 -0.73228,-1.31726 -3.41832,-4.50852 -5.96897,-7.09169 -3.77517,-3.82331 -15.36227,-19.03396 -19.04539,-25.00133 -0.85522,-1.38563 -4.6828,-0.0148 -18.49894,6.62511 l -5.42964,2.60946 0.74272,2.99011 c 4.05676,16.33203 18.02139,42.69372 27.95501,52.77201 6.59565,6.6917 7.61679,7.61773 12.12392,10.9946 2.88424,2.16089 4.43172,2.83038 4.93199,2.13356 z M 299.93791,556.59703 c 3.85325,0.0344 7.28631,-0.34832 7.62903,-0.85041 0.34274,-0.50208 2.17394,-4.962 4.06939,-9.91089 3.31746,-8.66172 4.12971,-11.9796 2.30212,-9.40371 -0.47709,0.67243 -7.5795,5.34189 -15.78313,10.3766 l -14.9157,9.15401 4.8462,0.28596 c 2.6654,0.15727 7.99884,0.31407 11.85209,0.34844 z m 260.02038,190.6602 c 0.41311,-1.8986 2.20737,-10.00787 3.98727,-18.02058 1.77989,-8.01271 2.9668,-14.5228 2.63757,-14.46685 -0.90765,0.15424 -13.12528,11.25646 -14.56558,13.23581 -0.94843,1.3034 -0.26008,4.28875 2.77409,12.03117 2.21954,5.66369 4.12103,10.38196 4.22554,10.48504 0.10451,0.10308 0.528,-1.36598 0.94111,-3.26459 z M 421.09994,640.55118 c 7.35584,0.51209 13.72866,-7.8094 11.57209,-15.11058 -0.85595,-2.89786 -2.06732,-3.9848 -13.40965,-12.03218 l -12.46869,-8.84654 -4.11433,0.69915 c -4.94511,0.84034 -7.12074,2.75046 -8.94665,7.85478 -0.91921,2.56964 -0.89823,5.08927 0.0636,7.63903 1.31826,3.49453 2.33979,4.44609 12.53098,11.67252 9.5001,6.73664 11.62444,7.90464 14.77261,8.12382 z m -84.15121,-92.82962 c 9.49589,-12.14573 18.32946,-19.83077 36.00378,-31.32261 17.81499,-11.58332 38.19854,-22.50891 65.02662,-34.85435 12.6122,-5.80373 23.1694,-10.88786 23.46044,-11.29807 0.29105,-0.41021 0.82964,-2.79878 1.19688,-5.30791 l 0.66772,-4.56208 -3.60517,0.99413 c -5.65007,1.55802 -28.48439,10.77402 -63.50967,25.63267 -17.70105,7.50925 -33.62353,14.07847 -35.38328,14.59824 -3.8318,1.13181 -6.36016,3.17657 -17.25128,13.95167 l -8.30002,8.2116 -6.75706,16.7929 -6.75706,16.79291 3.73237,0.13752 3.73237,0.13752 z m 209.51726,167.27951 c 0.5448,-0.79361 6.47713,-6.28171 13.18299,-12.19576 l 12.19245,-10.75281 6.09013,-12.44648 c 5.0463,-10.3132 6.14705,-13.45684 6.42227,-18.34145 0.18269,-3.24224 1.05071,-16.97207 1.92894,-30.51075 4.01094,-61.83202 4.64143,-78.25663 3.04672,-79.36813 -0.88934,-0.61995 -6.85459,2.30633 -7.99478,3.92182 -0.52953,0.74979 -1.77991,10.71515 -2.77912,22.14488 -2.38507,27.28244 -6.91827,56.24168 -11.87793,75.8793 -6.32952,25.06156 -10.95206,36.46236 -19.96182,49.23278 -3.98748,5.65193 -4.23328,6.3482 -3.36204,9.52528 1.14267,4.16692 1.81717,4.79788 3.11219,2.91132 z M 289.07441,490.44966 c 11.95312,-2.00656 23.05196,-4.18594 24.66408,-4.84309 2.8728,-1.17102 2.93522,-1.3267 3.13625,-7.8209 l 0.20511,-6.6261 -13.26265,0.15033 c -7.29446,0.0827 -21.15813,-0.32148 -30.80813,-0.89812 -9.65002,-0.57664 -17.7268,-1.03957 -17.94842,-1.02874 -0.47697,0.0233 -1.89719,8.99424 -3.00413,18.97578 l -0.78993,7.12298 8.03745,-0.69193 c 4.42059,-0.38057 17.81726,-2.33366 29.77037,-4.34021 z m 348.65428,266.00587 c 5.57249,-2.62143 10.72748,-5.17124 11.45555,-5.66623 0.91852,-0.62449 0.53252,-2.56617 -1.26095,-6.34287 -1.42158,-2.99358 -6.64248,-16.17607 -11.602,-29.29443 l -9.01729,-23.85156 -6.12876,2.36017 -6.12875,2.36018 0.16056,3.43305 c 0.47444,10.1445 3.33311,27.68647 7.05943,43.31945 2.31243,9.70132 4.45777,17.82095 4.76743,18.04362 0.30989,0.22232 5.1223,-1.73994 10.69478,-4.36138 z M 379.9047,551.34804 c 31.14469,-7.21609 50.91523,-16.6383 71.41052,-34.03274 10.31863,-8.75745 10.94843,-10.14925 9.17935,-20.28553 l -1.5184,-8.69993 -7.28496,3.10242 c -18.46662,7.86435 -46.67994,22.13353 -61.28896,30.99752 -16.34076,9.91473 -39.6361,27.76569 -43.68959,33.47885 -1.13428,1.59872 17.89054,-1.0153 33.19204,-4.56059 z m 163.12076,129.7381 c 6.13061,-15.12711 11.24755,-35.56448 15.40117,-61.51335 2.91746,-18.22611 6.88583,-52.63753 6.46257,-56.03951 -0.0408,-0.32841 -4.12026,0.0719 -9.06534,0.88949 -10.34575,1.7106 -10.79014,2.11692 -15.45841,14.13466 -9.52867,24.52998 -12.51283,48.80267 -9.42822,76.68739 1.62453,14.68573 6.11623,37.36126 7.24035,36.55169 0.39398,-0.28375 2.57553,-5.1034 4.84788,-10.71037 z M 233.16225,450.75645 c 27.66433,6.45722 80.59561,6.93454 143.42205,1.29334 6.65187,-0.59727 26.12612,-1.81006 43.27612,-2.69508 17.15001,-0.88504 35.01472,-2.20026 39.69936,-2.92273 7.79745,-1.20252 8.64093,-1.56915 9.97707,-4.33658 1.04772,-2.17001 1.0301,-3.13297 -0.0624,-3.41271 -1.98072,-0.50716 -83.58786,-2.55955 -105.75307,-2.65964 -52.2022,-0.23573 -89.98509,2.26008 -125.10424,8.26395 -14.23159,2.43299 -17.04826,3.10918 -16.01249,3.84405 0.18614,0.13207 4.93706,1.3135 10.5576,2.6254 z m 447.74037,317.326 c -0.47969,-3.20642 -1.26392,-8.67878 -1.74275,-12.16081 -2.23243,-16.23428 -13.3553,-59.71174 -21.54488,-84.21528 -10.31003,-30.84803 -13.24142,-39.25294 -19.2229,-55.11617 -23.29973,-61.79223 -30.38562,-80.27673 -30.73849,-80.18548 -0.21947,0.0567 -1.57176,1.25214 -3.00509,2.6564 -2.56236,2.51041 -2.55673,2.75281 0.33604,14.45815 1.61817,6.54772 5.63767,20.93663 8.93223,31.97535 3.29457,11.03873 10.11044,35.13244 15.14638,53.54159 5.03594,18.40915 11.12867,39.74494 13.5394,47.41287 5.05377,16.07477 18.0706,50.61845 22.90829,60.79331 3.14105,6.60641 13.95446,24.75665 15.52398,26.0569 0.40696,0.33717 0.34748,-2.01042 -0.13221,-5.21683 z M 448.11786,600.5372 c 6.48878,1.24488 13.33911,-5.97549 12.52532,-13.20191 -0.46236,-4.10585 -0.84268,-4.61556 -7.69923,-10.3183 -10.97782,-9.13049 -17.34503,-12.495 -22.11297,-11.68478 -2.15163,0.36563 -4.80226,1.51913 -5.8903,2.56333 -3.84783,3.69277 -4.91992,10.71701 -2.27272,14.89067 1.85468,2.92416 22.22517,17.13234 25.4499,17.75099 z m -103.40957,-115.25022 10.11433,3.026 17.3809,-7.21581 c 20.45127,-8.4905 36.39926,-15.25303 37.4352,-15.87388 0.40573,-0.24315 -10.87593,0.49312 -25.07034,1.63614 -14.19439,1.14302 -31.42534,2.45786 -38.29099,2.92186 -6.86564,0.464 -12.95183,1.04193 -13.52484,1.28431 -1.77673,0.75149 -1.56507,10.22181 0.23999,10.73768 0.88078,0.25173 6.15287,1.81938 11.71575,3.4837 z m 271.52217,195.22221 c 1.34111,-0.56582 3.47312,-1.43938 4.7378,-1.94124 2.16648,-0.85973 1.98101,-2.08736 -3.208,-21.23298 -5.45857,-20.14024 -6.74168,-25.07444 -11.5103,-44.26274 -1.35576,-5.4554 -2.60248,-9.72517 -2.7705,-9.48836 -0.49332,0.6953 -3.60696,42.22042 -3.79531,50.61614 -0.17079,7.61306 -0.12207,7.75164 5.20883,14.81485 2.95968,3.92144 5.81019,8.06935 6.33448,9.21756 1.38137,3.02531 2.27014,3.42977 5.003,2.27677 z M 475.78119,561.52895 c 4.1998,-0.57949 8.01016,-4.17847 8.99562,-8.4966 1.52508,-6.68253 -6.03458,-14.62145 -13.56796,-14.24867 -7.61151,0.37664 -12.28067,8.21 -8.84798,14.84407 2.45467,4.74391 8.88119,8.52752 13.42032,7.9012 z m 85.56046,-132.69662 c 12.36931,-2.29877 14.91128,-3.47056 16.52546,-7.6179 2.20916,-5.67605 -1.38949,-10.95848 -8.1098,-11.90431 -4.6921,-0.66037 -15.90705,2.19175 -20.38805,5.18497 -4.52345,3.02159 -6.09601,6.14777 -5.22168,10.38047 1.17708,5.69843 4.14609,6.38167 17.19407,3.95677 z m 97.3846,-14.58186 c -6.77092,-6.72202 -10.40989,-18.11835 -8.9603,-28.06148 0.68682,-4.71112 1.52637,-6.39292 7.14345,-14.30988 5.78081,-8.14773 6.82994,-9.20438 11.42794,-11.50992 17.37476,-8.71211 30.89216,-1.72679 34.19899,17.67286 4.27308,25.06825 -12.95959,49.17415 -30.97226,43.32551 -6.37157,-2.06883 -9.49952,-3.80292 -12.83782,-7.11709 z M 557.14516,340.53942 c -2.69152,-4.7403 -3.51704,-8.28321 -3.04969,-13.08836 0.41725,-4.28998 1.18103,-5.87735 6.2713,-13.0338 5.50325,-7.73699 6.17272,-8.35474 13.24596,-12.22161 16.71144,-9.13599 34.54325,-7.20332 40.61428,4.40188 2.50058,4.78007 3.03356,10.69686 1.65698,18.3952 -1.44101,8.05867 -9.67239,20.02284 -16.50859,23.99494 -6.50611,3.78032 -14.38001,5.12817 -22.11649,3.78593 -5.77574,-1.00207 -7.77444,-1.86273 -12.79792,-5.51093 -3.27425,-2.37789 -6.56639,-5.40332 -7.31583,-6.72325 z"
       id="path1" />
  </g>
</svg>
