<?xml version="1.0" encoding="UTF-8" standalone="no"?>
<!-- Created with Inkscape (http://www.inkscape.org/) -->

<svg
   version="1.1"
   id="svg1"
   width="685.58411"
   height="756.66779"
   viewBox="0 0 685.58411 756.66779"
   xmlns="http://www.w3.org/2000/svg"
   xmlns:svg="http://www.w3.org/2000/svg">
  <defs
     id="defs1" />
  <g
     id="g1"
     transform="translate(-151.87447,-122)">
    <path
       style="fill:#D4D4D8;fill-opacity:1"
       d="m 471,877.98703 c -22.3808,-1.99766 -42.95327,-6.57964 -55.28349,-12.31295 -8.17978,-3.80343 -16.61798,-10.93044 -20.17476,-17.03985 -3.01414,-5.17731 -10.70654,-27.55794 -14.53995,-42.30321 -6.6254,-25.4847 -14.92587,-69.37806 -16.58765,-87.7165 -0.64592,-7.12798 -0.91892,-7.83136 -3.805,-9.80358 -6.25951,-4.27748 -10.58083,-9.21055 -12.04063,-13.74516 C 347.03,690.28666 345.5017,673.8337 344.47529,651 c -0.53256,-11.84762 -0.38459,-13.92839 1.20894,-17 4.78657,-9.22637 26.88303,-15.79322 80.81577,-24.01765 27.48201,-4.19084 28.94751,-4.6739 35.71977,-11.77391 10.13712,-10.62771 17.7797,-25.15955 22.01491,-41.85982 1.9459,-7.67307 2.23362,-11.30637 2.16574,-27.34862 -0.0666,-15.74505 -0.47961,-20.58483 -2.7733,-32.5 -8.1199,-42.18086 -20.26841,-76.82446 -32.15768,-91.70327 -19.45147,-24.34252 -63.45655,-36.57966 -98.53635,-27.40144 -19.0182,4.97589 -32.96087,12.50843 -44.50093,24.04165 -6.7972,6.79317 -8.31848,8.92928 -9.65924,13.56306 -7.7898,26.92229 -10.52441,32.88756 -20.36155,44.41663 -7.79011,9.12997 -19.40465,18.11597 -31.10522,24.06566 -8.54245,4.3438 -26.10944,10.63978 -33.61661,12.04813 L 210,496.22258 v -4.53893 c 0,-22.7256 9.708,-49.95001 22.76782,-63.8484 11.73647,-12.49006 23.79048,-19.11279 41.73218,-22.92856 11.8681,-2.52406 13.35569,-3.2785 27.1911,-13.79007 6.49489,-4.93455 15.6339,-11.24679 20.3089,-14.02718 12.76869,-7.59402 12.65774,-7.2251 2,-6.65039 -60.32072,3.25277 -53.79581,2.14582 -64.98649,11.02502 -18.77955,14.90057 -36.51277,20.62444 -59.44155,19.18637 -14.48081,-0.90822 -35.41756,-4.90172 -44.88473,-8.56136 l -2.81277,-1.08731 3.31277,-4.62677 c 4.79103,-6.69138 16.75138,-17.54179 26.44851,-23.99403 24.5151,-16.31178 48.39843,-18.68415 76.07601,-7.55673 15.23086,6.12337 16.80958,6.15771 47.28825,1.0288 16.91638,-2.84666 16.95219,-2.86524 11.22739,-5.82245 -2.60006,-1.3431 -8.58338,-4.60377 -13.29625,-7.24595 -7.04899,-3.95188 -10.68509,-5.2402 -20.5,-7.26343 -25.27762,-5.21067 -38.3337,-14.92044 -53.14157,-39.52121 -9.61747,-15.9778 -18.39148,-27.99568 -24.65256,-33.76694 -3.06312,-2.82349 -4.14494,-4.41937 -3.33531,-4.92021 2.57541,-1.59317 19.55115,-1.50556 30.14447,0.15557 37.11688,5.82029 59.7157,24.939 70.08003,59.28805 3.35773,11.12802 6.75437,15.53863 16.36205,21.24645 7.90426,4.69583 20.32609,9.41416 28.67933,10.89361 3.26283,0.57788 13.13242,1.98022 21.93242,3.11631 38.60865,4.98443 61.92898,13.0548 83.64551,28.94689 5.14497,3.76507 9.50868,6.6977 9.69714,6.51695 0.73432,-0.70431 -6.33731,-18.57225 -11.86394,-29.97668 -9.52673,-19.65881 -20.53012,-34.57014 -34.47871,-46.7241 -11.72323,-10.21491 -14.86692,-11.76165 -30.29927,-14.90772 -15.24542,-3.10797 -25.69932,-7.55549 -35.90431,-15.27515 -8.50717,-6.43535 -14.94099,-14.88318 -23.37058,-30.6864 -3.93317,-7.37365 -9.14749,-16.27214 -11.58739,-19.77444 -2.43989,-3.50229 -4.20702,-6.59695 -3.92695,-6.87702 2.20152,-2.20152 24.69604,-2.95174 35.5885,-1.18691 15.16639,2.4573 29.83488,9.35842 40.38364,18.99939 8.65141,7.9069 14.06255,16.91361 18.65465,31.05022 2.19212,6.74837 4.6414,13.27052 5.44283,14.49366 1.32953,2.02911 4.88327,5.25301 23.42176,21.24785 3.41643,2.94766 6.35493,5.19766 6.53001,5 0.17507,-0.19766 -0.33435,-3.73438 -1.13204,-7.85938 -0.97596,-5.04677 -1.67932,-18.6213 -2.15033,-41.5 -0.89925,-43.68021 -0.16195,-41.68344 -19.56383,-52.98378 C 395.4786,197.63967 382.19378,177.37889 380.37911,153.77061 379.54186,142.87834 381.65623,122 383.59655,122 c 2.0568,0 13.12114,4.32673 20.41654,7.98392 16.09692,8.0694 27.4525,19.07338 34.58699,33.51608 6.46419,13.0858 7.92138,21.13373 6.35506,35.09849 -1.10479,9.84986 -1.0505,11.93118 0.48253,18.5 2.5652,10.99147 2.48189,10.87946 4.76146,6.40151 1.11994,-2.2 4.87969,-8.98067 8.355,-15.06816 4.80883,-8.42333 7.17466,-14.03883 9.90064,-23.5 1.97004,-6.83751 5.40554,-16.09546 7.63445,-20.57321 11.66843,-23.44125 32.95173,-37.65185 58.51593,-39.07036 10.20458,-0.56623 24.46546,0.87552 28.97252,2.92907 l 2.36258,1.07647 -3.82054,4.60309 c -5.49173,6.6166 -10.90766,14.90843 -18.68254,28.6031 -13.53962,23.84868 -31.25947,36.75862 -56.93717,41.48206 -3.85,0.70821 -8.1707,1.87899 -9.60156,2.60172 -8.9698,4.53068 -18.78483,26.02905 -22.94863,50.26559 -4.43245,25.80025 -1.87435,54.54487 7.62239,85.65063 3.37977,11.07013 4.00534,11.81239 5.41226,6.4218 0.63473,-2.43199 1.99498,-7.3468 3.02277,-10.9218 2.19035,-7.61882 5.40543,-25.53757 6.99758,-39 2.50696,-21.19761 8.50333,-35.05917 20.8385,-48.17154 8.35384,-8.88017 15.57261,-14.17706 27.02259,-19.82822 8.36817,-4.13014 17.949,-7.51867 18.81367,-6.65401 0.72276,0.72277 -2.34511,26.08887 -4.30474,35.59286 -5.08132,24.64383 -16.21815,41.29715 -38.87483,58.13096 -11.47382,8.52499 -15.44084,13.68139 -17.82368,23.16751 -5.92928,23.60458 -3.25968,48.87707 8.20358,77.6615 2.66231,6.68511 5.09889,12.41306 5.41461,12.72878 0.31572,0.31573 1.06903,-1.38388 1.67402,-3.7769 5.86649,-23.20467 20.02334,-48.09836 43.13584,-75.85094 24.3358,-29.22147 39.38491,-57.56854 40.6129,-76.5 0.45792,-7.05962 0.2071,-8.76406 -2.13377,-14.5 C 575.49138,250.97291 574,243.97314 574,234.79399 c 0,-15.05503 6.15071,-32.43197 17.17457,-48.52145 C 596.1251,179.04717 614.39399,159 616.0279,159 c 0.93309,0 4.74153,8.78844 7.15021,16.5 8.96848,28.71318 7.14687,55.77275 -5.14986,76.5 -2.12092,3.575 -7.29478,10.50152 -11.49748,15.39227 -4.2027,4.89075 -8.67514,10.96575 -9.93875,13.5 C 593.87061,286.35022 582,315.2544 582,316.42291 c 0,0.4454 1.6875,-0.71166 3.75,-2.57123 4.37979,-3.94888 25.71349,-19.87119 42.44452,-31.67828 16.18925,-11.42476 17.46594,-13.1342 22.40225,-29.99575 2.99262,-10.22227 5.24341,-14.7712 11.53535,-23.31333 C 670.8123,217.07985 684.32989,207.67583 700.5,202.17227 709.44992,199.12613 725.69934,196 732.58307,196 h 3.60461 l -0.71466,5.19616 c -1.52022,11.05333 -8.31886,31.24941 -13.57476,40.32525 -6.97419,12.04296 -18.6727,24.03205 -29.10914,29.83218 -8.02536,4.46014 -16.71051,7.17664 -29.25954,9.15164 -11.26003,1.77214 -14.6886,3.41053 -34.21116,16.3483 -18.30905,12.13356 -33.41527,24.37632 -48.76047,39.51767 -7.73187,7.62917 -13.38295,13.41305 -12.55795,12.85308 1.57448,-1.06868 31.49655,-7.36875 43.5,-9.1589 3.85,-0.57417 17.35,-2.20482 30,-3.62365 47.9049,-5.37305 65.37244,-10.67711 85.75028,-26.03826 16.52508,-12.45688 27.26505,-16.03176 45.24972,-15.06173 12.70363,0.68519 21.87518,3.32391 37,10.64515 11.54045,5.58621 26.54607,14.66059 27.92046,16.88441 0.88373,1.42991 -13.74902,8.68125 -29.25714,14.49853 -29.6883,11.13642 -51.83562,11.45476 -74.22666,1.06689 C 727.09489,335.26262 723.09317,334 719.875,334 c -5.2615,0 -16.32924,2.72967 -30.82069,7.60141 -0.79514,0.2673 3.59826,2.68049 9.76309,5.36263 14.35227,6.24426 30.5122,14.78243 40.6826,21.49483 11.29618,7.45541 12.79891,8.08514 24,10.05743 30.10901,5.30159 49.00455,19.50408 62.50891,46.9837 4.93818,10.04855 9.99109,26.7934 9.99109,33.10948 0,3.99693 0.12663,3.97763 -12.5,1.90552 -24.91046,-4.08795 -45.78531,-14.36909 -59.65925,-29.38296 -8.35996,-9.04685 -13.24084,-17.50085 -16.93684,-29.33571 -4.37708,-14.01574 -8.30838,-19.03992 -21.24933,-27.15649 -18.93305,-11.87481 -45.3124,-20.14602 -72.10042,-22.60699 C 641.36734,350.91327 622,351.59463 622,353.14295 c 0,0.47138 0.57434,0.85705 1.27632,0.85705 2.86046,0 23.87771,11.29589 33.22368,17.85634 5.5,3.86074 14.35212,9.97328 19.67139,13.5834 12.72513,8.63642 19.76597,15.19286 25.37364,23.628 9.30156,13.99153 13.03378,28.85035 12.16518,48.43226 -0.44069,9.93475 -2.98732,27.08259 -4.20637,28.32374 -0.61018,0.62123 -7.07882,-3.15201 -17.30495,-10.09418 -23.02754,-15.63261 -37.38146,-35.12541 -41.75335,-56.70156 -1.9375,-9.56197 -1.53497,-20.7154 1.00706,-27.90373 2.52966,-7.15335 2.11947,-8.62221 -3.7026,-13.25851 -6.56249,-5.22592 -23.00866,-13.10174 -32.25,-15.44402 -9.06174,-2.29676 -23.85682,-2.34242 -32.5,-0.10031 -30.00486,7.78352 -52.21797,37.01353 -56.97819,74.97703 -3.24731,25.89778 1.11963,46.67953 22.42158,106.70154 6.64178,18.7144 10.9949,33.32401 14.00425,47 2.79092,12.68331 3.55579,14.93147 5.41934,15.92881 0.98948,0.52956 9.4117,2.14287 18.71604,3.58514 32.54779,5.04525 58.62716,11.95809 66.42591,17.60748 6.70244,4.85522 7.35488,7.17541 6.56056,23.3305 -0.37989,7.72644 -1.33121,20.5212 -2.11403,28.43279 -1.67269,16.90495 -3.21481,20.42828 -11.76756,26.88566 -5.32339,4.0192 -5.42478,4.19237 -6.09438,10.40841 -5.55477,51.56655 -21.12118,118.242 -31.11774,133.28634 -8.65042,13.01848 -26.47964,20.8363 -59.47578,26.07915 -12.12482,1.92654 -62.20231,2.85282 -78,1.44275 z m 79.51707,-220.0155 c 46.5583,-2.99592 80.02243,-8.2685 85.34959,-13.44761 1.15042,-1.11844 0.9922,-1.53567 -1,-2.63686 -3.44604,-1.90481 -33.60772,-2.36243 -61.86666,-0.93865 -24.00155,1.20927 -50.72338,1.66154 -51.51306,0.87187 -0.24171,-0.24172 0.41213,-2.68075 1.45299,-5.42008 5.17326,-13.61489 7.09402,-34.82768 5.06087,-55.89194 -0.71711,-7.42954 -1.57315,-13.5024 -1.90232,-13.49524 -0.32916,0.007 -1.62741,4.15605 -2.88498,9.21976 -4.97636,20.03759 -13.55404,36.03155 -26.12523,48.71315 -8.39334,8.46706 -15.52813,12.99738 -24.58827,15.61261 -5.33247,1.53923 -8.33634,1.63232 -27,0.83669 -11.55,-0.49238 -32.7,-0.89484 -47,-0.89436 -21.89291,7.4e-4 -26.55288,0.2575 -29.5,1.62544 l -3.5,1.62456 4.7001,2.06764 c 11.46078,5.04175 41.73413,9.26395 86.7999,12.10592 18.79865,1.1855 75.3829,1.214 93.51707,0.0471 z"
       id="path1" />
  </g>
</svg>
