<?xml version="1.0" encoding="UTF-8" standalone="no"?>
<!-- Created with Inkscape (http://www.inkscape.org/) -->

<svg
   version="1.1"
   id="svg1"
   width="524.74939"
   height="862.35004"
   viewBox="0 0 524.74939 862.35004"
   xmlns="http://www.w3.org/2000/svg"
   xmlns:svg="http://www.w3.org/2000/svg">
  <defs
     id="defs1" />
  <g
     id="g1"
     transform="translate(-245.21829,-72.193193)">
    <path
       style="fill:#1d1d1f;stroke:none"
       d="m 316,309 c -2.12924,5.52899 -3.90286,11.00739 -3.98148,17 -0.041,3.12427 1.3993,7.63 -1.37576,9.91437 -3.45035,2.84027 -9.49765,3.62414 -13.64276,5.13885 -10.25626,3.74787 -20.43005,7.97309 -31,10.79163 -7.57346,2.01953 -16.56241,2.29071 -19.34723,11.15515 -7.23262,23.02234 14.80939,19.66266 23.25848,34.01465 3.72303,6.32403 3.51642,14.91369 4.51313,21.98535 1.63,11.565 4.05984,22.95496 7.92053,34 2.62073,7.49768 11.5069,17.4281 11.96991,25 0.33304,5.44635 -8.74146,13.47089 -11.6196,18 -6.32217,9.94867 -9.9899,22.1554 -8.51004,34 1.60196,12.82178 13.71463,17.68396 24.81482,13 -7.58371,16.2431 -16.21536,32.40015 -14.91049,51 1.21707,17.34839 13.49875,26.20245 29.91049,21 -2.66061,21.05273 -0.53403,50.92419 27,51 -1.24921,15.80652 -6.48636,31.56726 -12.86188,46 -4.50949,10.2085 -10.75052,20.70135 -11.96451,32 -1.83218,17.05237 10.17676,28.23535 26.82639,22 -8.03253,19.2934 -21.25488,37.25232 -20.99615,59 0.18087,15.20465 11.93753,25.58514 26.99615,22 -9.05618,15.51611 -16.15759,33.45966 -20.11188,51 -1.19687,5.30914 -2.94961,17.06488 5.12268,17.66284 7.89176,0.58447 9.24994,-14.11157 10.848,-19.66284 5.60574,-19.47302 13.85635,-37.92413 22.89428,-56 2.7208,-5.44159 10.9657,-15.64783 8.62808,-21.94135 -1.94152,-5.22717 -7.08203,-3.62335 -10.38116,-0.92517 -4.82324,3.94464 -19.36142,19.64985 -26.10727,11.54865 -5.25293,-6.30835 -0.43295,-18.11743 1.77469,-24.68213 4.4642,-13.27478 10.40338,-26.75049 17.19369,-39 3.4506,-6.22473 10.50989,-14.68488 10.81711,-21.98456 0.23587,-5.60431 -4.86395,-6.28253 -8.67822,-3.57867 -4.77176,3.38257 -24.55856,22.88647 -28.5625,8.51928 -1.77063,-6.35345 2.84848,-14.31323 5.28165,-19.95605 5.66983,-13.14905 13.64505,-27.41809 14.28085,-42 6.76813,6.67102 9.82642,15.48999 20,18.36108 4.1897,1.18244 10.3024,0.2909 11.88196,-4.46142 1.98889,-5.98371 -9.1601,-8.57501 -12.41437,-12.08484 -8.93475,-9.63641 -11.1055,-24.28552 -12.29782,-36.81482 -0.37134,-3.90222 1.87854,-15.4751 -1.76929,-17.91357 -3.23086,-2.15979 -5.9375,2.74304 -7.142,4.91821 -4.5177,8.15851 -13.55346,16.12353 -19.33874,3.99463 -5.71326,-11.97791 -2.23856,-26.87299 0.96454,-38.99927 1.21179,-4.58752 6.04611,-13.15918 3.0841,-17.68134 -2.75076,-4.19964 -7.44531,-0.88214 -9.69909,1.7901 -4.42536,5.24707 -14.98349,19.55115 -22.62036,10.66205 -4.76078,-5.54144 -3.34662,-13.26349 -1.9838,-19.77081 3.25226,-15.5293 10.45667,-29.2113 18.0293,-43 2.57611,-4.69073 8.85461,-12.27911 7.767,-17.94141 -0.92695,-4.82568 -6.22373,-4.24267 -9.17594,-1.74072 -4.67801,3.9646 -20.62594,23.03638 -27.10571,11.56946 C 283.5741,515.19763 301.25043,498.19421 307,490 h 1 c 22.0845,26.72144 75.21524,22.57422 102,7 -17.29834,20.6051 -32.91473,54.37415 -12.87656,78.96063 4.01825,4.93036 9.11255,9.01715 14.87656,11.71607 3.55359,1.66388 9.67142,2.20379 11.98688,5.62652 9.64038,14.25025 1.48898,42.43579 25.01312,46.69678 -3.09714,15.87958 9.46167,31.76733 23,38.21527 20.8363,9.92377 48.94904,5.55206 67,-8.11493 39.01782,-29.54187 44.15515,-89.07977 55,-133.10034 3.20343,2.68237 5.51837,8.875 9.22302,10.38116 7.70136,3.13117 8.23389,-6.78521 6.24384,-11.38116 -5.82715,-13.45789 -25.48865,-23.90271 -39.42291,-16.44214 -9.95923,5.33228 -0.18659,11.08276 6.95605,9.44214 -9.98602,29.51782 -33.89789,52.73944 -67,46.91589 -8.40405,-1.47851 -24.78238,-5.81048 -27.77161,-14.93054 -5.11615,-15.60925 -2.5697,-43.64795 9.77237,-54.81482 C 500.89279,498.12518 521.1731,493.14709 522.77161,480 524.07776,469.25732 513.02551,469.50464 506,472.46448 494.98376,477.10565 482.65671,489.54456 479,501 h -2 c -3.9744,-9.22321 -21.89606,-39.18518 -34.72147,-26.69678 -11.96011,11.64588 7.36896,18.16443 13.72147,23.01081 3.88364,2.96283 7.30444,6.91931 10.38425,10.68597 8.97043,10.97107 0.46566,27.62256 0.63427,41 0.0702,5.56702 2.73743,12.05676 -1.33642,16.81482 -16.00711,18.69537 -58.12952,13.15179 -61.49692,-13.81482 -1.65936,-13.28845 2.79236,-26.90942 9.90509,-38 2.99292,-4.66675 8.39932,-8.81049 10.30634,-14 5.15487,-14.02783 3.91052,-26.96576 13.52777,-40 14.11432,-19.12915 36.4881,-25.10809 59.07562,-24.99921 4.55344,0.022 23.78387,6.18372 24.91357,-0.14892 1.12787,-6.32227 -8.42242,-10.08136 -12.91357,-11.78632 -18.57892,-7.0531 -31.44025,-0.51562 -49,4.93445 2.79294,-7.45551 0.2988,-20.82977 5.51389,-26.60645 10.05709,-11.14013 36.67742,-9.79083 49.48611,-5.95373 4.35205,1.30377 11.53253,3.638 13.97223,7.77313 3.98267,6.75037 1.70154,19.95801 3.45294,27.78705 4.94129,22.08862 16.29688,44.19757 34.57483,58.10107 43.37238,32.99213 126.58984,23.56665 141,-37.10107 11.26233,7.93427 18.89655,21.6142 21.71375,35 1.02056,4.84912 2.57843,11.78748 -1.99231,15.39581 -5.7082,4.50629 -22.9134,-9.97455 -23.46528,0.64814 -0.28259,5.43994 5.28974,11.52368 7.94367,15.95605 6.88324,11.49585 22.69379,40.75488 12.09723,53.77081 -7.953,9.76886 -18.67249,-7.05694 -23.62189,-11.45215 -2.60229,-2.31091 -7.30615,-2.98053 -8.89276,0.90973 -2.27661,5.5821 3.92053,16.16223 5.32251,21.77161 3.77685,15.11133 6.7981,35.77319 -1.47144,49.99615 -7.35778,12.65485 -17.20672,2.28309 -22.7724,-5.9923 -1.52056,-2.26093 -4.68829,-7.95722 -8.26153,-5.71601 C 661.08289,624.49341 663.0014,636.35168 663,640 c -0.004,11.46143 -2.99133,31.64679 -17.71448,33.01849 -3.56207,0.33185 -6.04724,-1.92706 -9.28167,-2.83947 -3.45948,-0.9759 -6.44849,1.19403 -6.64197,4.83563 -0.59589,11.21533 17.31781,12.42212 24.63812,9.87659 12.24048,-4.25647 19.46533,-18.62439 20,-30.89124 h 1 c 0.67163,15.6449 3.58295,30.33521 9.05017,45 2.80035,7.51141 9.37781,19.81921 7.47681,27.99536 -3.13147,13.46857 -17.38483,-0.29822 -22.52698,-3.39123 -3.32446,-1.99964 -7.62469,-1.07892 -7.63892,3.41516 -0.0175,5.53644 4.99433,12.15283 7.39124,16.98071 5.36584,10.80804 10.64471,21.8374 15.23688,33 2.09796,5.09973 6.53955,13.50793 3.81714,18.98071 -5.27735,10.60889 -15.54889,-0.78552 -20.80634,-4.66284 -2.96045,-2.18323 -7.87372,-2.9187 -8.92902,1.74078 -1.16357,5.13752 4.53064,12.5188 6.67054,16.94135 6.55157,13.54016 12.53833,27.71478 17.25769,42 1.94928,5.90027 6.62017,16.27838 1.48694,21.67822 -11.16218,11.74188 -25.92396,-25.90503 -34.87891,-14.43518 -3.57178,4.57483 1.59491,12.43903 3.64813,16.75696 6.7334,14.16052 12.61139,29.06787 17.40051,44 1.52423,4.7525 2.66687,14.54321 9.35492,14.54321 5.49506,0 7.09088,-6.12311 6.88422,-10.54321 -0.50964,-10.90118 -6.01172,-21.98798 -9.89502,-32 14.09076,3.3454 25.34412,-6.94 25.96063,-21 C 702.86621,850.34753 689.5517,833.13336 682,815 c 12.37299,2.84198 21.07507,-7.18518 21.28937,-19 0.2973,-16.39276 -8.96387,-35.901 -18.28937,-49 15.79535,-0.0435 22.33093,-10.98389 20.82947,-26 C 703.55206,698.22357 691,679.62988 691,656 c 29.25452,-2.57361 27.25262,-45.69794 22,-66 15.99164,5.06934 28.19006,-4.61475 29.82947,-21 1.79632,-17.9541 -5.65204,-36.00488 -14.82947,-51 33.24652,-3.40533 13.34668,-52.40643 1.38428,-67 -3.93677,-4.80273 -12.80622,-10.20892 -14.69135,-16.08948 -2.19342,-6.84222 2.5163,-20.7019 3.57868,-27.91052 2.93982,-19.94781 32.77551,-20.40887 25.92822,-42.99921 -4.85425,-16.01495 -27.68128,-8.80169 -37.79242,-18.70294 C 703.38379,342.33698 705.25702,335.86804 704.69983,332 703.52942,323.87445 699.39258,317.26654 696,310 755.89172,284.93268 774.49133,208.25671 769.07483,150 766.83429,125.9024 757.99963,94.945312 738,79.529297 721.58142,66.873596 702.00421,71.785706 689.32562,87 673.13983,106.42291 667.63025,134.84619 662.80017,159 658.70483,179.47974 652.43079,202.12781 652,223 h -2 c -0.92487,-21.2193 -23.78943,-33.88263 -41,-20 -1.65564,-20.94672 -12.99188,-41.67303 -33,-50.12421 -9.09021,-3.8396 -21.92401,-5.54528 -29.31635,2.45295 C 540.29205,162.24414 541.0163,171.53082 539,180 525.66986,160.46436 506.0126,144.01288 482,140.29633 468.99664,138.28375 446.20746,138.40234 442.39429,155 c -1.87812,8.17487 1.59323,15.65533 4.60571,23 -17.71671,-7.36646 -35.62451,-13.43823 -55,-8.24304 -14.77701,3.96222 -24.43686,17.99939 -18.86652,33.24304 2.04773,5.60382 6.36429,10.27124 9.86652,15 l -18,4 c -0.002,-21.79578 -3.0946,-44.43335 -6.27161,-66 -3.46209,-23.50189 -7.9226,-49.60876 -22.62808,-69 C 323.61078,70.530762 303.18051,67.001099 287.01465,80.46759 270.40146,94.306702 262.14755,119.60077 257.57639,140 244.74733,197.25067 256.24316,280.73114 316,309 m 24,-56 c -5.1936,-4.45264 -7.21017,-11.72968 -9.57486,-18 -6.18063,-16.38892 -8.6134,-33.9104 -12.02545,-51 -1.03366,-5.17719 -1.65372,-23.77411 -7.49228,-25.65436 -3.88409,-1.25079 -4.84845,5.21979 -5.29166,7.65436 -1.58029,8.68048 -1.28143,19.22083 -0.44598,28 2.16562,22.75677 6.59344,47.08514 18.43442,67 4.53067,7.61993 10.14364,16.15167 18.39581,20 l -14,17 C 315.62097,294.0473 303.88235,280.88043 296.00385,271 267.9054,235.76184 262.99939,184.76141 273.62656,142 277.58136,126.08679 284.75574,99.335205 301,91.57251 c 8.45398,-4.039917 16.21417,0.908508 21.53241,7.428283 C 332.77228,111.55414 336.89291,128.46234 340,144 c 2.91022,14.5531 4.397,29.27521 6.05017,44 1.40021,12.47174 6.67951,30.74725 3.9259,43 -1.82614,8.12573 -9.50198,12.86072 -9.97607,22 m 351,87 c -12.49182,-1.87103 -24.3938,-8.09741 -37,-10.3858 -40.84131,-7.41388 -112.21277,1.43402 -120,53.3858 -8.21649,-2.36694 -15.42969,-6.83911 -24,-8.38428 -18.56302,-3.3468 -31.89792,3.45777 -49,8.38428 -7.09665,-41.21368 -58.79636,-57.5459 -95,-55.96063 -13.46738,0.58972 -26.61584,3.90277 -40,4.96063 0.002,-19.34827 17.26941,-36.25397 35,-42.60876 5.09717,-1.82685 21.33667,1.19628 23.65433,-5.6258 1.38629,-4.08063 -8.1174,-6.74219 -10.65433,-8.01391 C 365.55713,271.51923 353.62741,264.03064 355.21759,253 357.51578,237.05811 379.95578,232.00085 393,232 c 4.66379,-3.1e-4 16.4368,2.12994 18.86343,-3.14813 1.72617,-3.75452 -2.58999,-7.48871 -4.87887,-9.85187 -6.09925,-6.29724 -28.66837,-24.03912 -13.94058,-32.58258 15.48053,-8.98016 40.9133,1.34698 54.95602,8.89203 5.76538,3.09772 17.17621,12.89905 23.95602,9.49609 2.77185,-1.39123 5.18082,-4.59784 3.90818,-7.76617 -1.13587,-2.82776 -4.27942,-4.91846 -6.27393,-7.12885 -5.80777,-6.4364 -22.84244,-30.80865 -5.58951,-33.60571 22.61743,-3.66675 46.67798,10.52686 60.33335,27.69519 5.30981,6.67578 9.97088,13.85516 14.61651,20.99921 1.83185,2.81695 4.16547,7.15814 8.04938,7.24926 5.47205,0.12836 7.70953,-6.93621 7.15277,-11.24847 -1.36157,-10.54541 -7.72833,-38.95538 11.84723,-34.4707 20.79224,4.76342 26.77539,27.24139 28.71063,45.4707 0.63428,5.97491 -3.59491,16.09277 2.51776,20.3526 3.82941,2.6687 7.21045,-1.18591 8.86731,-4.36804 4.44806,-8.54285 16.31293,-23.30402 26.26618,-10.8758 7.90613,9.87201 5.11664,28.30689 3.50775,39.89124 -0.85712,6.17133 -1.14533,13.32617 7.13037,13.75232 11.8775,0.61163 17.13281,-24.13861 19.71991,-32.75232 11.20062,-37.29199 12.20795,-77.63477 26.48303,-114 5.12451,-13.05444 19.14746,-43.211853 37.79627,-30.347229 14.12298,9.742549 21.17926,31.337949 24.40045,47.347229 8.8128,43.79962 1.03705,94.30609 -28.69983,129 -9.14514,10.66962 -20.67481,19.242 -32.69983,26.39581 -5.17029,3.07587 -15.17682,5.7771 -17.76233,11.64661 -2.45117,5.56445 5.47907,8.41467 8.66895,11.28632 C 687.01733,324.82996 688.86633,332.42523 691,340 m 27,-185 c -9.82239,0.78265 -9.69983,20.25531 -11.62653,28 -7.22058,29.02417 -17.17871,55.22662 -37.21838,78 -4.62628,5.25739 -22.65491,17.54639 -16.40894,25.72144 3.8155,4.99389 10.05799,2.46649 14.25385,-0.34101 C 676.03192,280.3371 684.12402,271.65387 690.625,263 712.15076,234.34589 724.89105,190.53326 718,155 M 451,320 c 10.54724,32.34863 50.80389,27.39569 68,3 20.45715,20.02167 45.4585,8.1662 59.7832,-13 4.02381,-5.94556 14.59833,-23.68481 8.61341,-30.67822 -5.47364,-6.396 -9.94654,3.85266 -11.70526,7.67822 -5.0954,11.08331 -21.21393,36.73798 -36.6767,29.91052 -9.92969,-4.38434 -3.00476,-23.78631 -12.00385,-23.53399 -5.78875,0.16229 -9.71618,9.72454 -12.93438,13.62347 C 506.10785,316.65417 490.8324,330.1864 477,326.21063 464.12015,322.50867 462.67633,311.69476 467.21527,301 c 1.32077,-3.11206 3.23963,-9.90625 -2.27313,-10.17212 -5.29471,-0.25537 -9.68393,6.90772 -12.94599,10.16827 -6.93606,6.93293 -18.30502,16.18274 -28.99615,14.77546 -2.58685,-0.34052 -4.9516,-1.51892 -6.95602,-3.1659 -14.53989,-11.94684 5.48095,-23.0802 11.33334,-31.78936 3.20416,-4.76825 -2.10568,-7.7367 -6.37732,-6.84491 -17.55557,3.66497 -28.97986,28.54956 -19.77545,44.02856 7.08734,11.91876 21.23916,14.77325 33.77545,11.25385 6.26865,-1.75983 11.22427,-4.89771 16,-9.25385 m 164,25.28552 c 22.50513,-2.65692 56.62939,2.88074 71.31946,21.71833 9.3114,11.9403 11.67584,28.27691 11.68054,42.99615 0.0124,38.64569 -19.78992,75.65259 -61,80.71375 -21.74237,2.67022 -45.55438,-3.13843 -61.99921,-17.88733 C 544.57208,445.53577 535.36981,389.34186 569,361.32562 c 13.19037,-10.98846 29.50769,-14.09308 46,-16.0401 m -255,1 C 389.07468,342.84357 425.21063,351.63916 440.09955,379 464.95398,424.67407 420.65601,484.98376 374,490.71375 355.44156,492.99298 333.49799,489.06049 319,476.6991 290.72504,452.59106 283.17123,394.77893 308.43982,366.03937 321.1416,351.59283 341.94394,348.42303 360,346.28552 m -24.00076,11.47608 c -20.14661,6.87164 -23.69757,38.12182 -20.19214,55.2384 1.15915,5.65985 5.33435,11.36255 5.72839,17 0.39292,5.62152 -5.52749,13.36896 -7.10724,19 -1.41632,5.04858 -2.01458,20.16974 7.46372,18.16821 5.5155,-1.16473 7.59497,-21.1549 10.58642,-26.16821 1.61167,-2.70093 4.88922,-5.6554 4.89353,-9 0.006,-4.27386 -4.81964,-8.94269 -6.28165,-13 -2.41992,-6.71564 -2.36246,-13.94763 -2.0509,-21 0.60824,-13.76752 9.70447,-21.8924 13.35263,-33.99921 1.3016,-4.31952 -2.0907,-7.70654 -6.39276,-6.23919 M 393,389.65277 c -26.7551,8.38733 -19.34058,69.52075 12,59.69446 26.91101,-8.4375 18.00583,-69.10089 -12,-59.69446 m 210,-0.12036 c -27.67975,6.5481 -22.86633,68.02362 8,60.93829 C 630.61853,445.96729 632.39441,417.93414 625.21448,403 621.18268,394.61395 612.93524,387.18207 603,389.53241 m -196.00076,13.50464 c 6.35724,0.65881 6.58218,13.32715 -0.0247,13.32715 -7.17743,0 -7.16901,-14.07264 0.0247,-13.32715 m 208.06558,0.625 c 6.93317,-0.75788 7.58081,12.53802 0.91046,13.41662 -6.50378,0.85663 -7.41058,-12.70611 -0.91046,-13.41662 M 471,582 c 0,10.40503 1.20541,20.69055 2.57562,31 0.5217,3.92542 1.72452,11.08466 -0.60339,14.58105 -4.16519,6.2558 -16.08197,2.99317 -20.92902,-0.43444 C 442.73364,620.56323 440.21896,602.60681 440,592 c 11.41003,-0.49121 20.72531,-5.72229 31,-10 m 51,10 c -0.19452,9.42346 0.0915,22.79602 -5.14429,30.98456 -5.17175,8.08832 -21.1567,12.88629 -28.42593,4.78778 C 481.05087,619.55164 483,594.65686 483,584 l 39,8 m 29,39 c -5.52173,19.16821 -29.86047,44.08728 -52,38 5.82233,-20.50916 30.69006,-37.02618 52,-38 m -123.81174,16.04706 c -5.60046,2.98712 -5.24591,11.61175 -5.18441,16.95294 0.19735,17.14343 10.65167,32.99243 23.99615,43.10034 33.57697,25.43317 83.26886,22.802 115,-4.40051 7.46265,-6.39758 14.57678,-15.2403 17.64044,-24.69983 1.15918,-3.57904 1.69293,-11.68311 -4.60571,-10.24847 -7.42816,1.69195 -16.14581,18.8255 -22.03473,24.07489 -17.28455,15.40722 -42.53586,21.24414 -65,16.72448 -23.69772,-4.76782 -45.91238,-18.70068 -51.76389,-43.5509 -0.98043,-4.16376 0.41349,-22.46606 -8.04785,-17.95294 M 481,807 h 2 c 7.55484,19.50085 39.98877,27.92993 54.78705,11.90662 C 543.44177,812.78381 544,805.87329 544,798 c 5.79083,3.36719 12.12518,6.0448 18.99536,4.77161 3.31287,-0.61396 7.24414,-3.72754 4.95752,-7.45447 -2.65796,-4.33222 -16.14642,-5.24915 -20.94903,-9.50232 -3.6153,-3.20166 -9.16083,-13.13452 -14.89509,-11.84412 -6.16229,1.38666 -3.20983,10.12415 -2.23529,14.0293 2.66565,10.68164 2.48957,24.18835 -11.87347,25.36499 -12.06732,0.98853 -23.83658,-9.12061 -28.67285,-19.36499 -1.95709,-4.14557 -2.30081,-13.78253 -7.4321,-15.28784 -4.1698,-1.22321 -6.29663,2.94671 -6.82559,6.29169 -1.49164,9.43261 -3.70883,20.74407 -15.06946,22.64117 -17.90576,2.99011 -25.55847,-23.36231 -24.96063,-36.64502 0.18536,-4.11853 3.35864,-9.93054 2.17285,-13.83716 -1.15353,-3.80029 -5.45328,-2.0495 -7.24616,0.11646 -13.86654,16.75213 -5.36032,48.74743 12.03394,59.24157 12.3345,7.44147 33.72498,5.99414 39,-9.52087 m -24,105 c 13.37189,13.33502 43.12845,25.81879 55,3 1.6344,0.9693 3.27448,2.12463 5.02466,2.87964 3.71307,1.60168 11.08551,1.05401 9.31329,-4.84491 -1.31256,-4.3689 -10.04138,-11.94983 -14.3341,-13.23383 -5.74292,-1.71771 -7.28217,5.90583 -10.2284,9.09418 -4.475,4.84271 -10.54895,5.85327 -16.77545,4.42438 -8.25146,-1.89362 -15.1507,-7.51789 -19.95679,-14.31946 -2.27105,-3.21399 -4.58819,-11.05267 -9.07946,-11.53394 -6.67862,-0.71569 -5.33729,8.68116 -6.3974,12.53394 C 447.56528,907.27252 439.29865,912.32043 432,910.44135 420.76819,907.54962 414.52521,894.71753 414.03937,884 c -0.18466,-4.07336 1.61883,-10.08081 0.26773,-13.85107 -1.40701,-3.92627 -5.62711,-2.45874 -7.65509,0 C 382.21017,899.7821 437.57184,949.34772 457,912 Z"
       id="path1" />
  </g>
</svg>
